<?xml version="1.0" standalone="no"?>
<!DOCTYPE svg PUBLIC "-//W3C//DTD SVG 20010904//EN"
	"http://www.w3.org/TR/2001/REC-SVG-20010904/DTD/svg10.dtd">
<svg version="1.0" xmlns="http://www.w3.org/2000/svg"
	width="80px" height="80px" viewBox="0 0 1200.000000 1200.000000"
	preserveAspectRatio="xMidYMid meet">

<g transform="translate(0.000000,1200.000000) scale(0.100000,-0.100000)"
fill="silver" stroke="none">
<path d="M0 6000 l0 -6000 6000 0 6000 0 0 6000 0 6000 -6000 0 -6000 0 0
-6000z m4527 2567 c479 -478 694 -700 698 -719 12 -51 -28 -97 -85 -98 -33 0
-73 38 -732 698 -660 659 -698 699 -698 732 1 57 46 95 100 84 16 -3 269 -249
717 -697z m3751 667 c13 -15 22 -38 22 -57 0 -29 -66 -98 -698 -729 -677 -678
-698 -698 -735 -698 -49 0 -87 35 -87 82 0 30 58 90 693 726 380 382 701 698
712 702 29 13 67 3 93 -26z m-2105 -221 c82 -39 161 -116 199 -194 105 -217
15 -462 -208 -566 -53 -25 -70 -28 -164 -28 -97 0 -110 2 -173 32 -127 60
-213 174 -238 316 -36 198 90 395 296 464 25 8 75 12 130 10 77 -2 100 -7 158
-34z m527 -1388 c16 -8 34 -24 40 -34 6 -13 10 -237 10 -650 l0 -631 -750 0
-750 0 0 631 c0 411 4 637 10 649 27 50 18 49 738 50 581 0 677 -2 702 -15z
m-2276 -353 c164 -77 254 -226 244 -407 -5 -105 -45 -194 -119 -266 -227 -221
-599 -127 -691 174 -59 196 36 410 222 495 74 35 111 42 202 37 61 -2 92 -10
142 -33z m3487 0 c119 -57 192 -140 229 -260 48 -155 7 -306 -113 -420 -88
-82 -163 -113 -284 -114 -96 -1 -173 25 -248 81 -65 49 -95 87 -132 166 -25
54 -28 71 -28 170 0 99 3 116 27 168 50 107 172 208 284 237 22 5 75 8 120 6
65 -3 94 -10 145 -34z m-2726 -1088 c24 -10 48 -62 40 -93 -7 -28 -1350 -1382
-1395 -1405 -54 -28 -120 14 -120 77 0 29 67 99 697 729 631 631 701 698 730
698 17 0 39 -3 48 -6z m2417 -692 c632 -631 698 -700 698 -729 0 -48 -38 -86
-84 -86 -37 0 -60 22 -737 699 -763 763 -729 724 -678 788 16 21 29 26 62 26
l42 0 697 -698z m-1427 33 c164 -78 264 -263 236 -438 -20 -123 -100 -240
-206 -303 -99 -57 -244 -68 -355 -25 -177 67 -294 266 -263 446 32 188 178
333 353 353 86 10 169 -2 235 -33z"/>
<path d="M5889 8853 c-180 -92 -180 -344 0 -435 241 -122 469 175 294 382 -67
80 -195 103 -294 53z"/>
<path d="M5317 7563 c-4 -3 -7 -28 -7 -55 l0 -48 691 0 690 0 -3 53 -3 52
-681 3 c-374 1 -684 -1 -687 -5z"/>
<path d="M5310 6885 l0 -505 690 0 690 0 0 505 0 505 -690 0 -690 0 0 -505z
m824 389 c30 -11 38 12 -183 -528 -66 -162 -86 -199 -103 -194 -38 13 -32 36
106 374 117 286 147 352 163 354 1 0 8 -3 17 -6z m-375 -192 c14 -26 6 -33
-86 -86 -46 -26 -83 -49 -83 -51 0 -2 38 -25 85 -52 65 -37 85 -53 85 -69 0
-42 -30 -36 -140 26 -122 69 -139 83 -123 108 11 18 220 142 240 142 7 0 17
-8 22 -18z m632 -49 c90 -51 119 -73 119 -88 0 -15 -29 -37 -119 -88 -118 -66
-151 -75 -151 -37 0 22 21 39 103 84 37 21 67 39 67 41 0 2 -38 25 -85 51 -67
38 -85 52 -85 70 0 19 9 29 29 33 2 1 57 -29 122 -66z"/>
<path d="M4177 7123 c-68 -26 -115 -68 -143 -127 -75 -161 43 -347 220 -347
138 0 246 106 246 240 -1 172 -167 291 -323 234z"/>
<path d="M7670 7125 c-183 -57 -231 -314 -78 -425 58 -43 82 -51 149 -51 134
-1 249 110 249 240 0 103 -72 203 -169 234 -63 20 -90 20 -151 2z"/>
<path d="M5900 5374 c-129 -56 -183 -217 -115 -343 98 -179 343 -172 437 13
26 51 28 145 4 201 -22 52 -71 103 -121 126 -49 23 -155 25 -205 3z"/>
</g>
</svg>
