<?xml version="1.0" standalone="no"?>
<!DOCTYPE svg PUBLIC "-//W3C//DTD SVG 20010904//EN"
 "http://www.w3.org/TR/2001/REC-SVG-20010904/DTD/svg10.dtd">
<svg version="1.0" xmlns="http://www.w3.org/2000/svg"
 width="500.000000pt" height="500.000000pt" viewBox="0 0 500.000000 500.000000"
 preserveAspectRatio="xMidYMid meet">
<metadata>
Created by potrace 1.14, written by Peter Selinger 2001-2017
</metadata>
<g transform="translate(0.000000,500.000000) scale(0.100000,-0.100000)"
fill="#000000" stroke="none">
<path d="M1782 3318 c-9 -9 -12 -145 -12 -550 l0 -538 290 0 290 0 0 550 0
550 -278 0 c-203 0 -281 -3 -290 -12z m342 -162 c108 -41 149 -160 95 -272
-11 -23 -30 -50 -43 -59 l-24 -18 41 -21 c25 -12 54 -39 71 -65 26 -38 30 -54
30 -115 0 -60 -4 -79 -26 -118 -15 -25 -45 -56 -65 -69 -35 -21 -52 -23 -200
-27 -132 -3 -163 -1 -164 9 -6 57 -3 765 2 769 18 13 242 2 283 -14z"/>
<path d="M2380 2780 l0 -550 425 0 425 0 0 550 0 550 -425 0 -425 0 0 -550z
m268 385 c5 -6 42 -106 83 -222 41 -117 76 -213 79 -213 3 0 41 99 84 220 44
121 82 221 85 221 3 1 43 2 89 3 l82 2 0 -393 0 -392 -92 2 -93 2 0 123 c0 67
-2 122 -5 122 -3 0 -16 -33 -30 -72 -13 -40 -34 -97 -46 -125 l-23 -53 -51 0
c-59 0 -54 -7 -112 163 -18 53 -35 97 -38 97 -3 0 -5 -57 -5 -127 l0 -128 -92
-1 -93 -2 0 92 c-1 173 -1 621 0 657 l0 35 85 -1 c47 0 89 -5 93 -10z"/>
</g>
</svg>
