<svg xmlns="http://www.w3.org/2000/svg" version="1.1" xmlns:xlink="http://www.w3.org/1999/xlink" xmlns:svgjs="http://svgjs.com/svgjs" width="2000" height="1999"><svg xmlns="http://www.w3.org/2000/svg" version="1.1" xmlns:xlink="http://www.w3.org/1999/xlink" xmlns:svgjs="http://svgjs.dev/svgjs" width="2000" height="1999" viewBox="0 0 2000 1999"><g transform="matrix(1,0,0,1,-0.431486880466764,-0.4312711370263287)"><svg viewBox="0 0 343 343" data-background-color="#ffffff" preserveAspectRatio="xMidYMid meet" height="1999" width="2000" xmlns="http://www.w3.org/2000/svg" xmlns:xlink="http://www.w3.org/1999/xlink"><g id="SvgjsG1003" transform="matrix(1,0,0,1,0.0740000000000407,0.07400000000001228)"><svg viewBox="0 0 342.85155851775386 342.85155851775386" height="342.85155851775386" width="342.85155851775386"><g><svg></svg></g><g><svg viewBox="0 0 342.85155851775386 342.85155851775386" height="342.85155851775386" width="342.85155851775386"><g><path d="M0 171.426c0-94.676 76.75-171.426 171.426-171.426 94.676 0 171.426 76.75 171.426 171.426 0 94.676-76.75 171.426-171.426 171.426-94.676 0-171.426-76.75-171.426-171.426zM171.426 327.451c86.171 0 156.026-69.855 156.025-156.025 0-86.171-69.855-156.026-156.025-156.026-86.171 0-156.026 69.855-156.026 156.026 0 86.171 69.855 156.026 156.026 156.025z" data-fill-palette-color="tertiary" fill="#332885" stroke="transparent"></path><ellipse rx="164.56874808852186" ry="164.56874808852186" cx="171.42577925887693" cy="171.42577925887693" fill="#332885" stroke="transparent" stroke-width="0" fill-opacity="1" data-fill-palette-color="tertiary"></ellipse></g><g transform="matrix(1,0,0,1,64.84655864529837,86.04129001731684)"><svg viewBox="0 0 213.1584412271571 170.76897848312018" height="170.76897848312018" width="213.1584412271571"><g><svg viewBox="0 0 213.1584412271571 170.76897848312018" height="170.76897848312018" width="213.1584412271571"><g><svg viewBox="0 0 213.1584412271571 170.76897848312018" height="170.76897848312018" width="213.1584412271571"><g><svg viewBox="0 0 213.1584412271571 170.76897848312018" height="170.76897848312018" width="213.1584412271571"><g id="SvgjsG1002"><svg viewBox="0 0 213.1584412271571 170.76897848312018" height="170.76897848312018" width="213.1584412271571" id="SvgjsSvg1001"><g><svg viewBox="0 0 213.1584412271571 170.76897848312018" height="170.76897848312018" width="213.1584412271571"><g transform="matrix(1,0,0,1,0,0)"><svg width="213.1584412271571" viewBox="2.8 -35.15 44 35.25" height="170.76897848312018" data-palette-color="#ffffff"><path d="M23.2-14.5L23.2-14.5 23.15-8Q23.15-7.55 23.45-7.23 23.75-6.9 24.25-6.9L24.25-6.9Q27.3-6.9 29.28-8.1 31.25-9.3 31.25-11.88 31.25-14.45 29.2-15.45L29.2-15.45Q27.55-16.25 25.6-16.25L25.6-16.25Q25.1-16.25 24.6-16.2L24.6-16.2Q23.2-16.1 23.2-14.5ZM23.15-28.25L23.15-28.25 23.2-24.15Q23.2-23.2 24.35-23.2L24.35-23.2Q29.4-23.2 29.4-26.05L29.4-26.05Q29.4-29.35 24.9-29.35L24.9-29.35Q24.6-29.35 24.35-29.35L24.35-29.35Q23.15-29.35 23.15-28.25ZM6.8-34.95L6.8-34.95Q13-35.15 22.3-35.15 31.6-35.15 35.18-34.98 38.75-34.8 41.5-32.2 44.25-29.6 44.25-26.2L44.25-26.2Q44.25-22.05 40.65-20.1L40.65-20.1Q40.3-19.9 40.3-19.63 40.3-19.35 40.65-19.25L40.65-19.25Q43.25-18.55 45.03-16.25 46.8-13.95 46.8-10.8L46.8-10.8Q46.8-6.85 43.75-3.65 40.7-0.45 34.4-0.18 28.1 0.1 25.3 0.1 22.5 0.1 6.6-0.05L6.6-0.05Q5.15-0.05 4.25-0.98 3.35-1.9 3.2-3.1L3.2-3.1Q2.8-7.5 2.8-15.93 2.8-24.35 3.15-30.3L3.15-30.3Q3.3-32.75 4-33.83 4.7-34.9 6.8-34.95Z" opacity="1" transform="matrix(1,0,0,1,0,0)" fill="#ffffff" class="wordmark-text-0" data-fill-palette-color="quaternary" id="SvgjsPath1000"></path></svg></g></svg></g></svg></g></svg></g><g></g></svg></g></svg></g></svg></g></svg></g><defs></defs></svg><rect width="342.85155851775386" height="342.85155851775386" fill="none" stroke="none" visibility="hidden"></rect></g></svg></g></svg><style>@media (prefers-color-scheme: light) { :root { filter: none; } }
</style></svg>